<mxfile host="app.diagrams.net" modified="2023-04-22T19:37:51.950Z" agent="Mozilla/5.0 (Macintosh; Intel Mac OS X 10_15_7) AppleWebKit/537.36 (KHTML, like Gecko) Chrome/112.0.0.0 Safari/537.36" etag="yIHbmZf7MEjJLilVeOIC" version="21.2.1" type="device">
  <diagram id="3B03XYDXIa48sdE2aLpk" name="Page-1">
    <mxGraphModel dx="948" dy="520" grid="1" gridSize="10" guides="1" tooltips="1" connect="1" arrows="1" fold="1" page="1" pageScale="1" pageWidth="1100" pageHeight="850" math="0" shadow="0">
      <root>
        <mxCell id="0" />
        <mxCell id="1" parent="0" />
        <mxCell id="fTSGLELFs4bgMWzawuB0-1" value="" style="group" parent="1" vertex="1" connectable="0">
          <mxGeometry x="180" y="225" width="160" height="165.86" as="geometry" />
        </mxCell>
        <mxCell id="fTSGLELFs4bgMWzawuB0-2" value="&lt;font face=&quot;Times New Roman&quot; style=&quot;font-size: 16px;&quot;&gt;&lt;b&gt;X&lt;sub&gt;2&lt;/sub&gt;&lt;/b&gt;&lt;/font&gt;" style="ellipse;whiteSpace=wrap;html=1;aspect=fixed;" parent="fTSGLELFs4bgMWzawuB0-1" vertex="1">
          <mxGeometry width="45.71428571428571" height="45.71428571428571" as="geometry" />
        </mxCell>
        <mxCell id="fTSGLELFs4bgMWzawuB0-3" value="&lt;font face=&quot;Times New Roman&quot; style=&quot;font-size: 16px;&quot;&gt;&lt;b&gt;X&lt;sub&gt;3&lt;/sub&gt;&lt;/b&gt;&lt;/font&gt;" style="ellipse;whiteSpace=wrap;html=1;aspect=fixed;" parent="fTSGLELFs4bgMWzawuB0-1" vertex="1">
          <mxGeometry y="109.87512624707101" width="45.71428571428571" height="45.71428571428571" as="geometry" />
        </mxCell>
        <mxCell id="fTSGLELFs4bgMWzawuB0-5" value="&lt;font face=&quot;Times New Roman&quot; style=&quot;font-size: 16px;&quot;&gt;&lt;b&gt;X&lt;sub&gt;5&lt;/sub&gt;&lt;/b&gt;&lt;/font&gt;" style="ellipse;whiteSpace=wrap;html=1;aspect=fixed;" parent="fTSGLELFs4bgMWzawuB0-1" vertex="1">
          <mxGeometry x="114.28571428571428" width="45.71428571428571" height="45.71428571428571" as="geometry" />
        </mxCell>
        <mxCell id="fTSGLELFs4bgMWzawuB0-6" value="&lt;font face=&quot;Times New Roman&quot; style=&quot;font-size: 16px;&quot;&gt;&lt;b&gt;X&lt;sub&gt;4&lt;/sub&gt;&lt;/b&gt;&lt;/font&gt;" style="ellipse;whiteSpace=wrap;html=1;aspect=fixed;" parent="fTSGLELFs4bgMWzawuB0-1" vertex="1">
          <mxGeometry x="114.28571428571428" y="109.87512624707101" width="45.71428571428571" height="45.71428571428571" as="geometry" />
        </mxCell>
        <mxCell id="2oAIDch40GRLs4ybS8tB-4" value="" style="endArrow=none;html=1;rounded=0;entryX=0;entryY=0.5;entryDx=0;entryDy=0;exitX=1;exitY=0.5;exitDx=0;exitDy=0;" parent="fTSGLELFs4bgMWzawuB0-1" source="fTSGLELFs4bgMWzawuB0-2" target="fTSGLELFs4bgMWzawuB0-5" edge="1">
          <mxGeometry width="50" height="50" relative="1" as="geometry">
            <mxPoint x="50" y="23" as="sourcePoint" />
            <mxPoint x="9.999999999993406" y="32.85714285714289" as="targetPoint" />
          </mxGeometry>
        </mxCell>
        <mxCell id="2oAIDch40GRLs4ybS8tB-5" value="" style="endArrow=none;html=1;rounded=0;exitX=0.5;exitY=0;exitDx=0;exitDy=0;entryX=0.5;entryY=1;entryDx=0;entryDy=0;" parent="fTSGLELFs4bgMWzawuB0-1" source="fTSGLELFs4bgMWzawuB0-6" target="fTSGLELFs4bgMWzawuB0-5" edge="1">
          <mxGeometry width="50" height="50" relative="1" as="geometry">
            <mxPoint x="-44.285714285717404" y="42.85714285714289" as="sourcePoint" />
            <mxPoint x="19.999999999993406" y="42.85714285714289" as="targetPoint" />
          </mxGeometry>
        </mxCell>
        <mxCell id="2oAIDch40GRLs4ybS8tB-6" value="" style="endArrow=none;html=1;rounded=0;exitX=1;exitY=1;exitDx=0;exitDy=0;entryX=0;entryY=0;entryDx=0;entryDy=0;" parent="fTSGLELFs4bgMWzawuB0-1" source="fTSGLELFs4bgMWzawuB0-2" target="fTSGLELFs4bgMWzawuB0-6" edge="1">
          <mxGeometry width="50" height="50" relative="1" as="geometry">
            <mxPoint x="-34.285714285717404" y="52.85714285714289" as="sourcePoint" />
            <mxPoint x="29.999999999993406" y="52.85714285714289" as="targetPoint" />
          </mxGeometry>
        </mxCell>
        <mxCell id="2oAIDch40GRLs4ybS8tB-7" value="" style="endArrow=none;html=1;rounded=0;exitX=1;exitY=0.5;exitDx=0;exitDy=0;entryX=0;entryY=0.5;entryDx=0;entryDy=0;" parent="fTSGLELFs4bgMWzawuB0-1" source="fTSGLELFs4bgMWzawuB0-3" target="fTSGLELFs4bgMWzawuB0-6" edge="1">
          <mxGeometry width="50" height="50" relative="1" as="geometry">
            <mxPoint x="-24.285714285717404" y="62.85714285714289" as="sourcePoint" />
            <mxPoint x="39.999999999993406" y="62.85714285714289" as="targetPoint" />
          </mxGeometry>
        </mxCell>
        <mxCell id="2oAIDch40GRLs4ybS8tB-9" value="" style="endArrow=none;html=1;rounded=0;exitX=1;exitY=0;exitDx=0;exitDy=0;entryX=0;entryY=1;entryDx=0;entryDy=0;" parent="fTSGLELFs4bgMWzawuB0-1" source="fTSGLELFs4bgMWzawuB0-3" target="fTSGLELFs4bgMWzawuB0-5" edge="1">
          <mxGeometry width="50" height="50" relative="1" as="geometry">
            <mxPoint x="-4.285714285717404" y="82.85714285714289" as="sourcePoint" />
            <mxPoint x="120" y="40" as="targetPoint" />
          </mxGeometry>
        </mxCell>
        <mxCell id="2oAIDch40GRLs4ybS8tB-14" value="" style="endArrow=none;html=1;rounded=0;exitX=0.5;exitY=1;exitDx=0;exitDy=0;entryX=0.5;entryY=0;entryDx=0;entryDy=0;" parent="fTSGLELFs4bgMWzawuB0-1" source="fTSGLELFs4bgMWzawuB0-2" target="fTSGLELFs4bgMWzawuB0-3" edge="1">
          <mxGeometry width="50" height="50" relative="1" as="geometry">
            <mxPoint x="15.714285714282596" y="102.85714285714289" as="sourcePoint" />
            <mxPoint x="79.9999999999934" y="102.85714285714289" as="targetPoint" />
          </mxGeometry>
        </mxCell>
        <mxCell id="fTSGLELFs4bgMWzawuB0-10" value="&lt;font size=&quot;1&quot; face=&quot;Times New Roman&quot; style=&quot;&quot;&gt;&lt;b style=&quot;font-size: 21px;&quot;&gt;(a)&lt;/b&gt;&lt;/font&gt;" style="text;html=1;align=center;verticalAlign=middle;resizable=0;points=[];autosize=1;strokeColor=none;fillColor=none;" parent="1" vertex="1">
          <mxGeometry x="35" y="177" width="50" height="40" as="geometry" />
        </mxCell>
        <mxCell id="SroPWxwJ57fRnOFav5CQ-1" value="&lt;font face=&quot;Times New Roman&quot; style=&quot;font-size: 16px;&quot;&gt;&lt;b&gt;X&lt;sub&gt;1&lt;/sub&gt;&lt;/b&gt;&lt;/font&gt;" style="ellipse;whiteSpace=wrap;html=1;aspect=fixed;" parent="1" vertex="1">
          <mxGeometry x="70" y="225" width="45.71428571428571" height="45.71428571428571" as="geometry" />
        </mxCell>
        <mxCell id="2oAIDch40GRLs4ybS8tB-1" value="" style="endArrow=none;html=1;rounded=0;exitX=1;exitY=1;exitDx=0;exitDy=0;entryX=0;entryY=0;entryDx=0;entryDy=0;" parent="1" source="SroPWxwJ57fRnOFav5CQ-1" target="fTSGLELFs4bgMWzawuB0-3" edge="1">
          <mxGeometry width="50" height="50" relative="1" as="geometry">
            <mxPoint x="230" y="305" as="sourcePoint" />
            <mxPoint x="280" y="255" as="targetPoint" />
          </mxGeometry>
        </mxCell>
        <mxCell id="2oAIDch40GRLs4ybS8tB-3" value="" style="endArrow=none;html=1;rounded=0;exitX=1;exitY=0.5;exitDx=0;exitDy=0;entryX=0;entryY=0.5;entryDx=0;entryDy=0;" parent="1" source="SroPWxwJ57fRnOFav5CQ-1" target="fTSGLELFs4bgMWzawuB0-2" edge="1">
          <mxGeometry width="50" height="50" relative="1" as="geometry">
            <mxPoint x="230" y="305" as="sourcePoint" />
            <mxPoint x="280" y="255" as="targetPoint" />
          </mxGeometry>
        </mxCell>
        <mxCell id="2oAIDch40GRLs4ybS8tB-10" value="" style="endArrow=none;html=1;exitX=0.5;exitY=1;exitDx=0;exitDy=0;entryX=0;entryY=1;entryDx=0;entryDy=0;curved=1;" parent="1" source="SroPWxwJ57fRnOFav5CQ-1" target="fTSGLELFs4bgMWzawuB0-6" edge="1">
          <mxGeometry width="50" height="50" relative="1" as="geometry">
            <mxPoint x="185.7142857142826" y="325.7871428571429" as="sourcePoint" />
            <mxPoint x="249.9999999999934" y="325.7871428571429" as="targetPoint" />
            <Array as="points">
              <mxPoint x="140" y="462.93" />
            </Array>
          </mxGeometry>
        </mxCell>
        <mxCell id="2oAIDch40GRLs4ybS8tB-12" value="" style="endArrow=none;html=1;curved=1;exitX=1;exitY=0;exitDx=0;exitDy=0;entryX=0;entryY=0;entryDx=0;entryDy=0;" parent="1" edge="1">
          <mxGeometry width="50" height="50" relative="1" as="geometry">
            <mxPoint x="109.01958356997966" y="230.69470214430612" as="sourcePoint" />
            <mxPoint x="300.9804164300274" y="230.69470214431317" as="targetPoint" />
            <Array as="points">
              <mxPoint x="200" y="174" />
            </Array>
          </mxGeometry>
        </mxCell>
        <mxCell id="2oAIDch40GRLs4ybS8tB-15" value="" style="group" parent="1" vertex="1" connectable="0">
          <mxGeometry x="500" y="225" width="160" height="165.86" as="geometry" />
        </mxCell>
        <mxCell id="2oAIDch40GRLs4ybS8tB-16" value="&lt;font face=&quot;Times New Roman&quot; style=&quot;font-size: 16px;&quot;&gt;&lt;b&gt;X&lt;sub&gt;2&lt;/sub&gt;&lt;/b&gt;&lt;/font&gt;" style="ellipse;whiteSpace=wrap;html=1;aspect=fixed;" parent="2oAIDch40GRLs4ybS8tB-15" vertex="1">
          <mxGeometry width="45.71428571428571" height="45.71428571428571" as="geometry" />
        </mxCell>
        <mxCell id="2oAIDch40GRLs4ybS8tB-17" value="&lt;font face=&quot;Times New Roman&quot; style=&quot;font-size: 16px;&quot;&gt;&lt;b&gt;X&lt;sub&gt;3&lt;/sub&gt;&lt;/b&gt;&lt;/font&gt;" style="ellipse;whiteSpace=wrap;html=1;aspect=fixed;" parent="2oAIDch40GRLs4ybS8tB-15" vertex="1">
          <mxGeometry y="109.87512624707101" width="45.71428571428571" height="45.71428571428571" as="geometry" />
        </mxCell>
        <mxCell id="2oAIDch40GRLs4ybS8tB-18" value="&lt;font face=&quot;Times New Roman&quot; style=&quot;font-size: 16px;&quot;&gt;&lt;b&gt;X&lt;sub&gt;5&lt;/sub&gt;&lt;/b&gt;&lt;/font&gt;" style="ellipse;whiteSpace=wrap;html=1;aspect=fixed;" parent="2oAIDch40GRLs4ybS8tB-15" vertex="1">
          <mxGeometry x="114.28571428571428" width="45.71428571428571" height="45.71428571428571" as="geometry" />
        </mxCell>
        <mxCell id="2oAIDch40GRLs4ybS8tB-19" value="&lt;font face=&quot;Times New Roman&quot; style=&quot;font-size: 16px;&quot;&gt;&lt;b&gt;X&lt;sub&gt;4&lt;/sub&gt;&lt;/b&gt;&lt;/font&gt;" style="ellipse;whiteSpace=wrap;html=1;aspect=fixed;" parent="2oAIDch40GRLs4ybS8tB-15" vertex="1">
          <mxGeometry x="114.28571428571428" y="109.87512624707101" width="45.71428571428571" height="45.71428571428571" as="geometry" />
        </mxCell>
        <mxCell id="2oAIDch40GRLs4ybS8tB-21" value="" style="endArrow=none;html=1;rounded=0;exitX=0.5;exitY=0;exitDx=0;exitDy=0;entryX=0.5;entryY=1;entryDx=0;entryDy=0;" parent="2oAIDch40GRLs4ybS8tB-15" source="2oAIDch40GRLs4ybS8tB-19" target="2oAIDch40GRLs4ybS8tB-18" edge="1">
          <mxGeometry width="50" height="50" relative="1" as="geometry">
            <mxPoint x="-44.285714285717404" y="42.85714285714289" as="sourcePoint" />
            <mxPoint x="19.999999999993406" y="42.85714285714289" as="targetPoint" />
          </mxGeometry>
        </mxCell>
        <mxCell id="2oAIDch40GRLs4ybS8tB-22" value="" style="endArrow=none;html=1;rounded=0;exitX=1;exitY=1;exitDx=0;exitDy=0;entryX=0;entryY=0;entryDx=0;entryDy=0;" parent="2oAIDch40GRLs4ybS8tB-15" source="2oAIDch40GRLs4ybS8tB-16" target="2oAIDch40GRLs4ybS8tB-19" edge="1">
          <mxGeometry width="50" height="50" relative="1" as="geometry">
            <mxPoint x="-34.285714285717404" y="52.85714285714289" as="sourcePoint" />
            <mxPoint x="29.999999999993406" y="52.85714285714289" as="targetPoint" />
          </mxGeometry>
        </mxCell>
        <mxCell id="2oAIDch40GRLs4ybS8tB-25" value="" style="endArrow=none;html=1;rounded=0;exitX=0.5;exitY=1;exitDx=0;exitDy=0;entryX=0.5;entryY=0;entryDx=0;entryDy=0;" parent="2oAIDch40GRLs4ybS8tB-15" source="2oAIDch40GRLs4ybS8tB-16" target="2oAIDch40GRLs4ybS8tB-17" edge="1">
          <mxGeometry width="50" height="50" relative="1" as="geometry">
            <mxPoint x="15.714285714282596" y="102.85714285714289" as="sourcePoint" />
            <mxPoint x="79.9999999999934" y="102.85714285714289" as="targetPoint" />
          </mxGeometry>
        </mxCell>
        <mxCell id="2oAIDch40GRLs4ybS8tB-26" value="&lt;font size=&quot;1&quot; face=&quot;Times New Roman&quot; style=&quot;&quot;&gt;&lt;b style=&quot;font-size: 21px;&quot;&gt;(b)&lt;/b&gt;&lt;/font&gt;" style="text;html=1;align=center;verticalAlign=middle;resizable=0;points=[];autosize=1;strokeColor=none;fillColor=none;" parent="1" vertex="1">
          <mxGeometry x="355" y="177" width="50" height="40" as="geometry" />
        </mxCell>
        <mxCell id="2oAIDch40GRLs4ybS8tB-27" value="&lt;font face=&quot;Times New Roman&quot; style=&quot;font-size: 16px;&quot;&gt;&lt;b&gt;X&lt;sub&gt;1&lt;/sub&gt;&lt;/b&gt;&lt;/font&gt;" style="ellipse;whiteSpace=wrap;html=1;aspect=fixed;" parent="1" vertex="1">
          <mxGeometry x="390" y="225" width="45.71428571428571" height="45.71428571428571" as="geometry" />
        </mxCell>
        <mxCell id="2oAIDch40GRLs4ybS8tB-29" value="" style="endArrow=none;html=1;rounded=0;exitX=1;exitY=0.5;exitDx=0;exitDy=0;entryX=0;entryY=0.5;entryDx=0;entryDy=0;" parent="1" source="2oAIDch40GRLs4ybS8tB-27" target="2oAIDch40GRLs4ybS8tB-16" edge="1">
          <mxGeometry width="50" height="50" relative="1" as="geometry">
            <mxPoint x="550" y="305" as="sourcePoint" />
            <mxPoint x="600" y="255" as="targetPoint" />
          </mxGeometry>
        </mxCell>
        <mxCell id="2oAIDch40GRLs4ybS8tB-33" value="" style="group" parent="1" vertex="1" connectable="0">
          <mxGeometry x="820" y="225" width="160" height="165.86" as="geometry" />
        </mxCell>
        <mxCell id="2oAIDch40GRLs4ybS8tB-34" value="&lt;font face=&quot;Times New Roman&quot; style=&quot;font-size: 16px;&quot;&gt;&lt;b&gt;X&lt;sub&gt;2&lt;/sub&gt;&lt;/b&gt;&lt;/font&gt;" style="ellipse;whiteSpace=wrap;html=1;aspect=fixed;" parent="2oAIDch40GRLs4ybS8tB-33" vertex="1">
          <mxGeometry width="45.71428571428571" height="45.71428571428571" as="geometry" />
        </mxCell>
        <mxCell id="2oAIDch40GRLs4ybS8tB-35" value="&lt;font face=&quot;Times New Roman&quot; style=&quot;font-size: 16px;&quot;&gt;&lt;b&gt;X&lt;sub&gt;3&lt;/sub&gt;&lt;/b&gt;&lt;/font&gt;" style="ellipse;whiteSpace=wrap;html=1;aspect=fixed;" parent="2oAIDch40GRLs4ybS8tB-33" vertex="1">
          <mxGeometry y="109.87512624707101" width="45.71428571428571" height="45.71428571428571" as="geometry" />
        </mxCell>
        <mxCell id="2oAIDch40GRLs4ybS8tB-36" value="&lt;font face=&quot;Times New Roman&quot; style=&quot;font-size: 16px;&quot;&gt;&lt;b&gt;X&lt;sub&gt;5&lt;/sub&gt;&lt;/b&gt;&lt;/font&gt;" style="ellipse;whiteSpace=wrap;html=1;aspect=fixed;" parent="2oAIDch40GRLs4ybS8tB-33" vertex="1">
          <mxGeometry x="114.28571428571428" width="45.71428571428571" height="45.71428571428571" as="geometry" />
        </mxCell>
        <mxCell id="2oAIDch40GRLs4ybS8tB-37" value="&lt;font face=&quot;Times New Roman&quot; style=&quot;font-size: 16px;&quot;&gt;&lt;b&gt;X&lt;sub&gt;4&lt;/sub&gt;&lt;/b&gt;&lt;/font&gt;" style="ellipse;whiteSpace=wrap;html=1;aspect=fixed;" parent="2oAIDch40GRLs4ybS8tB-33" vertex="1">
          <mxGeometry x="114.28571428571428" y="109.87512624707101" width="45.71428571428571" height="45.71428571428571" as="geometry" />
        </mxCell>
        <mxCell id="2oAIDch40GRLs4ybS8tB-40" value="" style="endArrow=none;html=1;rounded=0;exitX=0.5;exitY=1;exitDx=0;exitDy=0;entryX=0.5;entryY=0;entryDx=0;entryDy=0;" parent="2oAIDch40GRLs4ybS8tB-33" source="2oAIDch40GRLs4ybS8tB-34" target="2oAIDch40GRLs4ybS8tB-35" edge="1">
          <mxGeometry width="50" height="50" relative="1" as="geometry">
            <mxPoint x="15.714285714282596" y="102.85714285714289" as="sourcePoint" />
            <mxPoint x="79.9999999999934" y="102.85714285714289" as="targetPoint" />
          </mxGeometry>
        </mxCell>
        <mxCell id="2oAIDch40GRLs4ybS8tB-44" value="" style="endArrow=classic;html=1;curved=1;entryX=0;entryY=0;entryDx=0;entryDy=0;exitX=1;exitY=1;exitDx=0;exitDy=0;" parent="2oAIDch40GRLs4ybS8tB-33" source="2oAIDch40GRLs4ybS8tB-34" target="2oAIDch40GRLs4ybS8tB-37" edge="1">
          <mxGeometry width="50" height="50" relative="1" as="geometry">
            <mxPoint x="-180" y="85" as="sourcePoint" />
            <mxPoint x="-130" y="35" as="targetPoint" />
          </mxGeometry>
        </mxCell>
        <mxCell id="2oAIDch40GRLs4ybS8tB-45" value="" style="endArrow=classic;html=1;curved=1;entryX=0.5;entryY=0;entryDx=0;entryDy=0;exitX=0.5;exitY=1;exitDx=0;exitDy=0;" parent="2oAIDch40GRLs4ybS8tB-33" source="2oAIDch40GRLs4ybS8tB-36" target="2oAIDch40GRLs4ybS8tB-37" edge="1">
          <mxGeometry width="50" height="50" relative="1" as="geometry">
            <mxPoint x="49.01958356998648" y="49.01958356998648" as="sourcePoint" />
            <mxPoint x="130.98041643002716" y="126.56982839138391" as="targetPoint" />
          </mxGeometry>
        </mxCell>
        <mxCell id="2oAIDch40GRLs4ybS8tB-41" value="&lt;font size=&quot;1&quot; face=&quot;Times New Roman&quot; style=&quot;&quot;&gt;&lt;b style=&quot;font-size: 21px;&quot;&gt;(c)&lt;/b&gt;&lt;/font&gt;" style="text;html=1;align=center;verticalAlign=middle;resizable=0;points=[];autosize=1;strokeColor=none;fillColor=none;" parent="1" vertex="1">
          <mxGeometry x="675" y="177" width="50" height="40" as="geometry" />
        </mxCell>
        <mxCell id="2oAIDch40GRLs4ybS8tB-42" value="&lt;font face=&quot;Times New Roman&quot; style=&quot;font-size: 16px;&quot;&gt;&lt;b&gt;X&lt;sub&gt;1&lt;/sub&gt;&lt;/b&gt;&lt;/font&gt;" style="ellipse;whiteSpace=wrap;html=1;aspect=fixed;" parent="1" vertex="1">
          <mxGeometry x="710" y="225" width="45.71428571428571" height="45.71428571428571" as="geometry" />
        </mxCell>
        <mxCell id="2oAIDch40GRLs4ybS8tB-43" value="" style="endArrow=none;html=1;rounded=0;exitX=1;exitY=0.5;exitDx=0;exitDy=0;entryX=0;entryY=0.5;entryDx=0;entryDy=0;" parent="1" source="2oAIDch40GRLs4ybS8tB-42" target="2oAIDch40GRLs4ybS8tB-34" edge="1">
          <mxGeometry width="50" height="50" relative="1" as="geometry">
            <mxPoint x="870" y="305" as="sourcePoint" />
            <mxPoint x="920" y="255" as="targetPoint" />
          </mxGeometry>
        </mxCell>
      </root>
    </mxGraphModel>
  </diagram>
</mxfile>
